<svg width="96" height="96" xmlns="http://www.w3.org/2000/svg" xmlns:xlink="http://www.w3.org/1999/xlink" xml:space="preserve" overflow="hidden"><g><path d="M56.969 24.233C56.541 23.5525 55.826 23.1045 55.027 23.016 54.2649 22.9273 53.5039 23.1909 52.96 23.732L16.588 58.832 11.067 64.121 17.458 75.196 24.776 72.917 34.527 70.151 34.465 70.208 38.949 75.153 53.076 71.253 54.376 64.57 54.276 64.551 73.368 59.136 73.48 59.097C74.2465 58.7715 74.8327 58.1276 75.085 57.334 75.3185 56.6217 75.2282 55.843 74.838 55.203ZM13.584 64.477 17.084 61.127 22.996 71.374 18.396 72.808ZM51.35 69.648 39.6 72.894 36.58 69.564 52.23 65.125ZM73.184 56.728C73.1153 56.9447 72.9626 57.1248 72.76 57.228L24.96 70.785 18.565 59.7 54.365 25.16C54.4805 25.0411 54.6443 24.9821 54.809 25 54.991 25.0191 55.1557 25.1166 55.26 25.267L73.136 56.233C73.2248 56.3826 73.2424 56.5641 73.184 56.728Z"/><path d="M74.2536 33.8389 84.2239 28.2294 85.2041 29.9716 75.2338 35.5811Z"/><path d="M75.7505 42.8399 76.2905 40.9139 87.3073 44.0027 86.7672 45.9287Z"/><path d="M68.2743 29.7573 71.3631 18.7405 73.2891 19.2805 70.2003 30.2973Z"/></g></svg>